# xmcd
#
# Track frame offsets: 
#        150
#        17285
#        36667
#        54532
#        82657
#        98855
#        123965
#        148000
#        164502
#        179247
#        198257
#        213120
#
# Disc length: 3067 seconds
#
# Revision: 16
# Processed by: cddbd v1.5.2PL0 Copyright (c) Steve Scherf et al.
# Submitted via: ExactAudioCopyFreeDBPlugin 1.0
#
DISCID=a10bf90c
DTITLE=John Mayall And The Bluesbreakers - Blues For The Lost Days
DYEAR=1997
DGENRE=Blues
TTITLE0=Dead City
TTITLE1=Stone Cold Deal
TTITLE2=All Those Heroes
TTITLE3=Blues For The Lost Days
TTITLE4=Trenches
TTITLE5=One In A Million
TTITLE6=How Can You Live Like That
TTITLE7=Some Other Day
TTITLE8=I Don't Mind
TTITLE9=It Ain't Safe
TTITLE10=Sen-Say-Shun
TTITLE11=You Are For Real
EXTD=
EXTT0=
EXTT1=
EXTT2=
EXTT3=
EXTT4=
EXTT5=
EXTT6=
EXTT7=
EXTT8=
EXTT9=
EXTT10=
EXTT11=
PLAYORDER=
